<svg xmlns="http://www.w3.org/2000/svg" width="1200" height="1800" viewBox="0 0 1200 1800" role="img" aria-label="Cold night mountain lake poster">
  <defs>
    <linearGradient id="sky" x1="0" y1="0" x2="0" y2="1">
      <stop offset="0%" stop-color="#07111f" />
      <stop offset="40%" stop-color="#0c1d33" />
      <stop offset="72%" stop-color="#102744" />
      <stop offset="100%" stop-color="#0a1a2d" />
    </linearGradient>
    <linearGradient id="water" x1="0" y1="0" x2="0" y2="1">
      <stop offset="0%" stop-color="#0f2847" />
      <stop offset="100%" stop-color="#07111f" />
    </linearGradient>
    <radialGradient id="moonGlow" cx="50%" cy="50%" r="50%">
      <stop offset="0%" stop-color="#f6fbff" stop-opacity="0.95" />
      <stop offset="28%" stop-color="#d4e5ff" stop-opacity="0.55" />
      <stop offset="60%" stop-color="#8aa9d8" stop-opacity="0.16" />
      <stop offset="100%" stop-color="#8aa9d8" stop-opacity="0" />
    </radialGradient>
    <linearGradient id="mist" x1="0" y1="0" x2="0" y2="1">
      <stop offset="0%" stop-color="#a7c0e8" stop-opacity="0" />
      <stop offset="40%" stop-color="#a7c0e8" stop-opacity="0.14" />
      <stop offset="100%" stop-color="#a7c0e8" stop-opacity="0" />
    </linearGradient>
    <linearGradient id="reflectionFade" x1="0" y1="0" x2="0" y2="1">
      <stop offset="0%" stop-color="#d7e7ff" stop-opacity="0.18" />
      <stop offset="100%" stop-color="#d7e7ff" stop-opacity="0" />
    </linearGradient>
    <filter id="softBlur" x="-20%" y="-20%" width="140%" height="140%">
      <feGaussianBlur stdDeviation="18" />
    </filter>
    <filter id="fineBlur" x="-20%" y="-20%" width="140%" height="140%">
      <feGaussianBlur stdDeviation="6" />
    </filter>
  </defs>

  <rect width="1200" height="1800" fill="url(#sky)" />

  <g opacity="0.9">
    <circle cx="192" cy="244" r="1.8" fill="#edf6ff" />
    <circle cx="318" cy="144" r="1.5" fill="#dcecff" />
    <circle cx="428" cy="214" r="2" fill="#f4fbff" />
    <circle cx="566" cy="126" r="1.4" fill="#dcecff" />
    <circle cx="694" cy="186" r="1.9" fill="#eef7ff" />
    <circle cx="816" cy="110" r="1.4" fill="#dcecff" />
    <circle cx="941" cy="210" r="1.6" fill="#eef7ff" />
    <circle cx="1028" cy="154" r="1.3" fill="#dcecff" />
    <circle cx="152" cy="364" r="1.5" fill="#dcecff" />
    <circle cx="276" cy="320" r="1.2" fill="#eef7ff" />
    <circle cx="382" cy="388" r="1.6" fill="#dcecff" />
    <circle cx="854" cy="334" r="1.5" fill="#eef7ff" />
    <circle cx="970" cy="288" r="1.2" fill="#dcecff" />
    <circle cx="1082" cy="354" r="1.7" fill="#eef7ff" />
  </g>

  <g>
    <circle cx="618" cy="392" r="178" fill="url(#moonGlow)" />
    <circle cx="618" cy="392" r="90" fill="#eef6ff" />
    <circle cx="592" cy="370" r="18" fill="#dbeaff" opacity="0.45" />
    <circle cx="648" cy="430" r="12" fill="#d3e0f7" opacity="0.32" />
    <circle cx="655" cy="360" r="9" fill="#d3e0f7" opacity="0.24" />
  </g>

  <ellipse cx="618" cy="715" rx="390" ry="70" fill="#9ab8e7" opacity="0.12" filter="url(#softBlur)" />

  <path d="M0 860 C120 720 220 660 338 692 C440 720 508 648 624 634 C738 620 836 674 940 650 C1046 624 1120 678 1200 742 L1200 1080 L0 1080 Z" fill="#203c61" opacity="0.62" />

  <path d="M0 958 C96 850 202 796 316 816 C412 834 520 760 628 744 C748 726 860 790 956 782 C1060 774 1128 828 1200 878 L1200 1122 L0 1122 Z" fill="#173353" opacity="0.84" />

  <path d="M0 1060 C110 944 216 902 304 920 C420 944 524 840 632 838 C748 836 842 908 932 914 C1034 920 1122 952 1200 1010 L1200 1218 L0 1218 Z" fill="#0f2742" />

  <rect x="0" y="1080" width="1200" height="720" fill="url(#water)" />

  <g opacity="0.54">
    <path d="M478 1102 C524 1168 560 1298 570 1600 L602 1600 C602 1290 616 1172 646 1102 Z" fill="url(#reflectionFade)" filter="url(#fineBlur)" />
    <path d="M0 1218 C110 1296 210 1332 304 1328 C416 1322 522 1420 632 1426 C746 1432 844 1358 934 1350 C1038 1340 1120 1368 1200 1416 L1200 1600 L0 1600 Z" fill="#173453" opacity="0.52" />
    <path d="M0 1124 C96 1186 202 1222 316 1220 C410 1218 520 1276 628 1284 C748 1294 860 1246 956 1240 C1060 1234 1128 1258 1200 1298 L1200 1496 L0 1496 Z" fill="#25476f" opacity="0.2" />
  </g>

  <g stroke="#d8e8ff" stroke-opacity="0.12" stroke-width="3" fill="none">
    <path d="M120 1270 C260 1240 390 1244 528 1268 C650 1288 804 1288 1082 1242" />
    <path d="M86 1338 C252 1308 404 1314 544 1338 C690 1362 842 1360 1118 1310" />
    <path d="M144 1416 C322 1388 466 1396 592 1422 C738 1454 884 1454 1060 1414" />
    <path d="M168 1502 C306 1476 462 1482 620 1512 C744 1536 868 1534 1020 1496" />
  </g>

  <g filter="url(#softBlur)">
    <ellipse cx="612" cy="1068" rx="520" ry="44" fill="url(#mist)" />
    <ellipse cx="586" cy="1188" rx="462" ry="40" fill="url(#mist)" opacity="0.8" />
    <ellipse cx="640" cy="1360" rx="402" ry="36" fill="url(#mist)" opacity="0.48" />
  </g>

  <rect x="56" y="56" width="1088" height="1688" rx="8" ry="8" fill="none" stroke="#dcecff" stroke-opacity="0.08" stroke-width="2" />
</svg>
